<?xml version="1.0" encoding="UTF-8"?>
<svg id="Layer_1" data-name="Layer 1" xmlns="http://www.w3.org/2000/svg" viewBox="0 0 512.27 447.38">
  <defs>
    <style>
      .cls-1 {
        fill: #fff;
        stroke-width: 0px;
      }
    </style>
  </defs>
  <g>
    <path class="cls-1" d="m260.81,164h-7.06v-4.19c0-17.95-.04-35.89.05-53.84.01-2.4-.49-3.67-2.99-4.6-36.31-13.46-72.57-27.05-108.85-40.59-.84-.31-1.73-.49-2.96-.83,0,1.57,0,2.86,0,4.15,0,41.44.03,82.87-.08,124.31,0,2.95.83,4.36,3.55,5.54,18.48,8.04,36.85,16.35,55.35,24.36,3.05,1.32,4.57,2.81,4.6,6.28.03,3.08.94,6.14,1.56,9.83-6.77-2.89-13.03-5.56-19.29-8.24-18.04-7.73-36.06-15.53-54.15-23.15-2.55-1.08-3.53-2.33-3.53-5.2.1-48.43.09-96.86,0-145.29,0-2.83.85-4.09,3.52-5.11C171.41,31.85,212.21,16.11,253.08.54c1.75-.67,4.19-.74,5.92-.08,40.87,15.57,81.67,31.32,122.53,46.9,2.83,1.08,3.72,2.39,3.71,5.38-.1,48.3-.07,96.6-.06,144.89,0,2.14.1,3.91-2.55,5.03-24.14,10.22-48.21,20.61-72.31,30.93-.48.2-1.01.27-1.86.49.59-4.41.98-8.66,1.86-12.81.22-1.02,1.98-1.94,3.22-2.49,18.53-8.27,37.09-16.47,55.64-24.69,1.32-.58,2.62-1.2,3.88-1.78V60.75c-4.77,1.78-9.18,3.42-13.59,5.06-31.61,11.75-63.2,23.54-94.84,35.19-2.92,1.08-3.95,2.41-3.92,5.61.19,17.55.09,35.1.09,52.65v4.74Zm-115.01-109.69c1.49.63,2.2.96,2.93,1.23,35.3,13.13,70.59,26.29,105.94,39.3,1.72.63,4.13.36,5.92-.3,27.45-10.06,54.85-20.26,82.26-30.43,8.42-3.13,16.81-6.3,25.74-9.64-1.22-.58-1.79-.9-2.4-1.13-35.49-13.75-70.97-27.53-106.51-41.16-1.6-.61-3.89-.39-5.55.24-20.67,7.89-41.28,15.94-61.91,23.94-15.22,5.9-30.44,11.78-46.42,17.96Z"/>
    <path class="cls-1" d="m295.28,222.88c-.01-9.27-2.11-12.2-10.69-15.01-2.24-21.48-11.26-32.29-27.46-32.6-6.82-.13-12.93,2.12-18.19,6.56-8.18,6.89-10.49,16.06-9.87,26.13-8.32,2.25-10.93,5.61-10.96,13.89-.03,9.36-.04,18.72,0,28.08.04,9.33,4.21,13.57,13.54,13.61,16.74.06,33.48.07,50.22,0,9.07-.04,13.35-4.36,13.4-13.36.06-9.09.02-18.19.01-27.29Zm-21.76-13.96h-33.46c-1.15-8.64.81-15.73,8.45-20.02,5.83-3.27,11.9-3.05,17.56.76,6.86,4.62,8,11.49,7.46,19.26Z"/>
  </g>
  <g>
    <path class="cls-1" d="m35.14,406.95v7.07h-15.63c-7.79,0-11.2,3.89-11.2,13.18s3.35,13.12,11.2,13.12h15.63v7.07h-15.63c-11.8,0-18.27-6.65-18.27-20.18s6.53-20.24,18.27-20.24h15.63Zm12.88,0l11.32,17.31,11.44-17.31h8.39l-16.29,23v17.43h-7.13v-17.43l-16.29-23h8.56Zm57.98,0c9.52,0,13.54,4.49,13.54,11.08,0,4.67-2.04,7.49-5.81,8.98,3.83,1.56,5.99,4.55,5.99,9.22,0,6.47-4.01,11.14-13.54,11.14h-17.97c-2.28,0-3.35-1.08-3.35-3.29v-33.84c0-2.22,1.08-3.29,3.35-3.29h17.79Zm-14.19,17.07h14.37c4.19,0,6.23-1.56,6.23-4.85s-1.86-5.27-6.17-5.27h-13.66c-.48,0-.78.24-.78.72v9.4Zm0,15.69c0,.48.3.66.78.66h13.78c4.25,0,6.23-1.98,6.23-5.27s-2.1-5.21-6.23-5.21h-14.55v9.82Zm47.97.6c-3.8,0-5.78-1.62-6.07-4.35-.03-.24-.04-.48-.04-.74,0-.31.02-.6.05-.88h0s.04-4.03.04-4.03h26.14v-6.41h-26.09l.04-4.57c0-.07,0-.15,0-.22,0-.11,0-.23.01-.34.13-2.92,2-4.75,6.1-4.75h20.24v-7.07h-20.24c-9.52,0-13.54,4.55-13.54,11.02l-.12,18.33v.13c.03,6.25,3.93,10.95,13.48,10.95h20.48v-7.07h-20.48Zm126.37,0c-3.8,0-5.78-1.62-6.07-4.35-.03-.24-.04-.48-.04-.74,0-.31.02-.6.05-.88h0s.04-4.03.04-4.03h26.14v-6.41h-26.09l.04-4.57c0-.07,0-.15,0-.22,0-.11,0-.23.01-.34.13-2.92,2-4.75,6.1-4.75h20.24v-7.07h-20.24c-9.52,0-13.54,4.55-13.54,11.02l-.12,18.33v.13c.03,6.25,3.93,10.95,13.48,10.95h20.48v-7.07h-20.48Zm-70.49-9.1c6.17-1.74,8.56-7.13,8.56-12.16,0-6.47-3.89-12.1-13-12.1h-21.86v40.43h7.07v-14.61c0-.72.36-1.02,1.02-1.02h10.54l9.22,15.63h7.85l-9.4-16.17Zm-4.19-6.23h-15.03v-10.96h15.03c3.89,0,5.63,2.46,5.63,5.33s-1.62,5.63-5.63,5.63Zm215.22,6.23c6.17-1.74,8.56-7.13,8.56-12.16,0-6.47-3.89-12.1-13-12.1h-21.86v40.43h7.07v-14.61c0-.72.36-1.02,1.02-1.02h10.54l9.22,15.63h7.85l-9.4-16.17Zm-4.19-6.23h-15.03v-10.96h15.03c3.89,0,5.63,2.46,5.63,5.33s-1.62,5.63-5.63,5.63Zm-159.1-18.03v7.07h-20.72c-3.65,0-5.27,1.98-5.27,4.79,0,2.46,1.26,4.79,5.99,4.79h9.46c11.02,0,13.6,6.11,13.6,11.92,0,6.83-3.65,11.86-12.88,11.86h-22.52v-7.07h22.76c3.83,0,5.57-2.1,5.57-5.03,0-2.64-1.38-5.03-6.35-5.03h-9.4c-10.78,0-13.3-6.05-13.3-11.68,0-6.71,3.59-11.62,12.58-11.62h20.48Zm84.81,0v7.07h-15.63c-7.79,0-11.2,3.89-11.2,13.18s3.35,13.12,11.2,13.12h15.63v7.07h-15.63c-11.8,0-18.27-6.65-18.27-20.18s6.53-20.24,18.27-20.24h15.63Zm15.33,0v27.01c0,4.01,2.04,6.35,6.71,6.35h7.19c4.55,0,6.65-2.34,6.65-6.35v-27.01h6.95v27.55c0,8.51-4.49,12.88-13.12,12.88h-8.51c-8.62,0-13.06-4.37-13.06-12.88v-27.55h7.19Zm86.78,0v40.43h-7.07v-40.43h7.07Zm37.31,0v7.07h-11.8v33.36h-7.13v-33.36h-11.8v-7.07h30.73Zm12.28,0l11.32,17.31,11.44-17.31h8.39l-16.29,23v17.43h-7.13v-17.43l-16.29-23h8.56Z"/>
    <g>
      <rect class="cls-1" x="172.82" y="317.81" width="11.07" height="62.28" rx="1" ry="1"/>
      <path class="cls-1" d="m46.39,307.14l-17.21,54.34-17.21-54.34c-.66-2.1-2.61-3.52-4.81-3.52H2.52c-1.7,0-2.92,1.66-2.4,3.28l21.5,67.9c1,3.14,3.91,5.28,7.21,5.28h.7c3.3,0,6.22-2.14,7.21-5.28l21.5-67.9c.51-1.63-.7-3.28-2.4-3.28h-4.65c-2.2,0-4.14,1.42-4.81,3.52Z"/>
      <rect class="cls-1" x="172.82" y="292.55" width="11.07" height="11.07" rx="1" ry="1"/>
      <rect class="cls-1" x="380.35" y="317.81" width="11.07" height="62.28" rx="1" ry="1"/>
      <rect class="cls-1" x="380.35" y="292.55" width="11.07" height="11.07" rx="1" ry="1"/>
      <path class="cls-1" d="m454.07,341.97c-.05-16.11-4.28-25.73-18.6-25.73s-19.09,8.9-19.09,8.9v-4.8c0-1.39-1.13-2.52-2.52-2.52h-6.03c-1.39,0-2.52,1.13-2.52,2.52v57.24c0,1.39,1.13,2.52,2.52,2.52h6.03c1.39,0,2.52-1.13,2.52-2.52v-39.7c0-11.51,14.76-13.46,20.67-11.18,5.96,2.3,5.96,11.76,5.96,11.76v39.12c0,1.39,1.13,2.52,2.52,2.52h6.03c1.39,0,2.52-1.13,2.52-2.52v-35.6h0Z"/>
      <path class="cls-1" d="m305,342.66c-.11-15.92-4.36-25.43-18.6-25.43s-19.09,8.9-19.09,8.9v-31.06c0-1.39-1.13-2.52-2.52-2.52h-6.03c-1.39,0-2.52,1.13-2.52,2.52v82.49c0,1.39,1.13,2.52,2.52,2.52h6.03c1.39,0,2.52-1.13,2.52-2.52v-38.7c0-11.51,14.76-13.46,20.67-11.18,5.96,2.3,5.96,11.76,5.96,11.76v38.12c0,1.39,1.13,2.52,2.52,2.52h6.03c1.39,0,2.52-1.13,2.52-2.52v-34.9h0Z"/>
      <path class="cls-1" d="m153.43,316.24c-14.42,0-19.09,8.9-19.09,8.9v-4.8c0-1.39-1.13-2.52-2.52-2.52h-6.03c-1.39,0-2.52,1.13-2.52,2.52v57.24c0,1.39,1.13,2.52,2.52,2.52h6.03c1.39,0,2.52-1.13,2.52-2.52v-39.7c0-11.51,15.08-13.49,20.98-11.2.09.04.19.07.28.12,2,.89,4.33.09,5.22-1.91l2.76-6.2c-2.62-1.59-5.94-2.44-10.15-2.44Z"/>
      <path class="cls-1" d="m72.78,353.17h35.57c1.39,0,2.52-1.13,2.52-2.52v-11.86c0-12.46-10.1-22.55-22.55-22.55h-4.22c-12.46,0-22.55,10.1-22.55,22.55v20.33c0,12.46,10.1,22.55,22.55,22.55h4.22c8.39,0,15.7-3.85,19.59-10.49.73-1.25.26-2.86-1.02-3.53l-3.23-1.69c-1.64-.86-3.64-.42-4.82,1.02-2.4,2.94-6.2,4.61-10.47,4.61h-2.46c-7.26,0-13.14-5.72-13.14-12.78v-5.64Zm0-15.66c0-5.89,4.77-10.66,10.66-10.66h5.55c5.89,0,10.66,4.77,10.66,10.66v6.64h-26.86v-6.64Z"/>
      <path class="cls-1" d="m208.31,353.59v-16.08c0-5.89,4.77-10.66,10.66-10.66h5.55c4.16,0,7.77,2.39,9.52,5.87.87,1.72,2.8,2.59,4.64,2.02l4.36-1.36c1.42-.44,2.17-2.03,1.58-3.4-3.43-8.08-11.44-13.75-20.77-13.75h-4.22c-12.46,0-22.55,10.1-22.55,22.55v20.33c0,12.46,10.1,22.55,22.55,22.55h4.22c8.39,0,15.7-3.85,19.59-10.49.73-1.25.26-2.86-1.02-3.53l-3.23-1.69c-1.64-.86-3.64-.42-4.82,1.02-2.4,2.94-6.2,4.61-10.47,4.61h-2.46c-7.26,0-13.14-5.72-13.14-12.78v-5.64"/>
      <path class="cls-1" d="m366.11,336.32c0-14.21-10.79-20.09-22.41-20.09h-4.22c-6.54,0-12.42,2.79-16.53,7.24-.93,1.01-.89,2.58.1,3.54l2.96,2.88c1.48,1.44,3.88,1.52,5.33.06,1.92-1.91,4.55-3.1,7.47-3.1h5.55c5.48,0,10.68,3.89,10.68,9.47h0v7.2h-21.64c-9.47,0-17.16,7.68-17.16,17.16v2.21c0,10.38,8.41,18.79,18.79,18.79h1.66c7.67,0,14.89-3.26,18.35-9.89v5.77c0,1.39,1.13,2.52,2.52,2.52h6.03c1.39,0,2.52-1.13,2.52-2.52v-41.25h0Zm-25.12,34.44h-5.95c-4.49,0-8.13-3.08-8.13-8.13v-2.61c0-4.36,3.53-7.89,7.89-7.89h20.24v11.35c-1.93,4.71-7.49,7.27-14.05,7.27Z"/>
      <path class="cls-1" d="m489.23,381.67c-4.83,0-8.81-.67-11.93-2.02-3.13-1.35-5.6-3.03-7.42-5.05-1.82-2.02-3.17-4.04-4.04-6.06-.51-1.19-.96-2.49-1.33-3.91-.42-1.59.81-3.16,2.45-3.16h5.44c1.62,0,3.05,1.04,3.64,2.55.4,1.03.87,1.95,1.39,2.74.91,1.39,2.33,2.61,4.27,3.68,1.94,1.07,4.53,1.6,7.78,1.6,3.72,0,6.61-.89,8.67-2.67,2.06-1.78,3.09-3.98,3.09-6.59,0-2.3-.81-4.12-2.43-5.46-1.62-1.35-3.94-2.37-6.95-3.09l-8.55-2.02c-3.17-.79-6.14-1.86-8.91-3.21-2.77-1.34-5.01-3.19-6.71-5.52-1.7-2.33-2.55-5.24-2.55-8.73,0-5.38,2.02-9.8,6.06-13.24,4.04-3.44,9.3-5.17,15.79-5.17,4.35,0,7.96.61,10.81,1.84,2.85,1.23,5.12,2.75,6.83,4.57,1.7,1.82,2.97,3.64,3.8,5.46.45.98.84,2.05,1.19,3.22.47,1.6-.77,3.2-2.44,3.2h-4.94c-1.6,0-2.97-1.01-3.62-2.48-.33-.74-.7-1.4-1.11-1.97-.83-1.15-2.08-2.18-3.74-3.09-1.66-.91-3.88-1.36-6.65-1.36-3.8,0-6.57.87-8.31,2.61-1.74,1.74-2.61,3.64-2.61,5.7s.81,3.58,2.44,4.81c1.62,1.23,3.74,2.16,6.35,2.79l8.67,2.02c5.38,1.27,9.84,3.34,13.36,6.23,3.41,2.79,5.17,6.75,5.28,11.88.05,2.44-.33,4.9-1.22,7.17-1.74,4.44-4.85,7.81-9.34,10.1-3.4,1.74-7.56,2.61-12.47,2.61Z"/>
    </g>
  </g>
</svg>